<svg id="Layer_2" data-name="Layer 2" xmlns="http://www.w3.org/2000/svg" viewBox="0 0 4344.94 2715.59"><defs><style>.cls-1{fill:#ee6c4d;}.cls-2,.cls-3,.cls-4,.cls-5{fill:none;stroke:#ee6c4d;stroke-linecap:round;stroke-linejoin:round;}.cls-2{stroke-width:8px;}.cls-3{stroke-width:7.41px;}.cls-4{stroke-width:6.19px;}.cls-5{stroke-width:14px;}.cls-6{fill:#e0fbfc;}</style></defs><path class="cls-1" d="M2950.14,745.71A87.35,87.35,0,0,1,3037.39,833V1711.7a87.35,87.35,0,0,1-87.25,87.25H1335.53a87.35,87.35,0,0,1-87.25-87.25V833a87.35,87.35,0,0,1,87.25-87.25H2950.14m0-25H1335.53A112.25,112.25,0,0,0,1223.28,833V1711.7A112.24,112.24,0,0,0,1335.53,1824H2950.14a112.24,112.24,0,0,0,112.25-112.25V833a112.25,112.25,0,0,0-112.25-112.25Z"/><path class="cls-1" d="M2482.18,815.91A117.07,117.07,0,0,1,2599.25,933v678.68a117.07,117.07,0,0,1-117.07,117.08H1803.49a117.07,117.07,0,0,1-117.07-117.08V933a117.07,117.07,0,0,1,117.07-117.08h678.69m0-14H1803.49A131.08,131.08,0,0,0,1672.42,933v678.68a131.08,131.08,0,0,0,131.07,131.08h678.69a131.08,131.08,0,0,0,131.07-131.08V933a131.08,131.08,0,0,0-131.07-131.08Z"/><path class="cls-1" d="M3070.67,551A52.39,52.39,0,0,1,3123,603.36v57a52.39,52.39,0,0,1-52.33,52.33H1215a52.4,52.4,0,0,1-52.33-52.33v-57A52.4,52.4,0,0,1,1215,551H3070.67m0-25H1215a77.33,77.33,0,0,0-77.33,77.33v57A77.33,77.33,0,0,0,1215,737.72H3070.67A77.33,77.33,0,0,0,3148,660.39v-57A77.33,77.33,0,0,0,3070.67,526Z"/><path class="cls-1" d="M2955,1837.18a82.45,82.45,0,0,1,82.36,82.37v357.16a82.45,82.45,0,0,1-82.36,82.37H1330.64a82.46,82.46,0,0,1-82.36-82.37V1919.55a82.46,82.46,0,0,1,82.36-82.37H2955m0-25H1330.64a107.37,107.37,0,0,0-107.36,107.37v357.16a107.37,107.37,0,0,0,107.36,107.37H2955a107.37,107.37,0,0,0,107.36-107.37V1919.55A107.37,107.37,0,0,0,2955,1812.18Z"/><path class="cls-1" d="M2430.27,377.54a79.55,79.55,0,0,1,0,159.09H1855.4a79.55,79.55,0,0,1,0-159.09h574.87m0-14H1855.4a93.54,93.54,0,0,0-93.54,93.55h0a93.54,93.54,0,0,0,93.54,93.54h574.87a93.54,93.54,0,0,0,93.54-93.54h0a93.54,93.54,0,0,0-93.54-93.55Z"/><path class="cls-1" d="M2380.38,252.54a52.33,52.33,0,0,1,0,104.66H1905.29a52.33,52.33,0,1,1,0-104.66h475.09m0-14H1905.29A66.33,66.33,0,0,0,1839,304.87h0a66.33,66.33,0,0,0,66.33,66.33h475.09a66.33,66.33,0,0,0,66.33-66.33h0a66.33,66.33,0,0,0-66.33-66.33Z"/><line class="cls-2" x1="1887.72" y1="272.55" x2="1887.72" y2="337.18"/><line class="cls-2" x1="1916.06" y1="272.55" x2="1916.06" y2="337.18"/><line class="cls-2" x1="1944.41" y1="272.55" x2="1944.41" y2="337.18"/><line class="cls-2" x1="1972.76" y1="272.55" x2="1972.76" y2="337.18"/><line class="cls-2" x1="2001.1" y1="272.55" x2="2001.1" y2="337.18"/><line class="cls-2" x1="2029.45" y1="272.55" x2="2029.45" y2="337.18"/><line class="cls-2" x1="2057.8" y1="272.55" x2="2057.8" y2="337.18"/><line class="cls-2" x1="2086.14" y1="272.55" x2="2086.14" y2="337.18"/><line class="cls-2" x1="2114.49" y1="272.55" x2="2114.49" y2="337.18"/><line class="cls-2" x1="2142.84" y1="272.55" x2="2142.84" y2="337.18"/><line class="cls-2" x1="2171.18" y1="272.55" x2="2171.18" y2="337.18"/><line class="cls-2" x1="2199.53" y1="272.55" x2="2199.53" y2="337.18"/><line class="cls-2" x1="2227.87" y1="272.55" x2="2227.87" y2="337.18"/><line class="cls-3" x1="3211.96" y1="1678.3" x2="3099.32" y2="1678.3"/><line class="cls-4" x1="1198.73" y1="1920.55" x2="1120.1" y2="1920.55"/><line class="cls-4" x1="1198.73" y1="1949.11" x2="1120.1" y2="1949.11"/><line class="cls-4" x1="1198.73" y1="1977.67" x2="1120.1" y2="1977.67"/><line class="cls-4" x1="1198.73" y1="1891.98" x2="1120.1" y2="1891.98"/><line class="cls-4" x1="1198.73" y1="1863.42" x2="1120.1" y2="1863.42"/><line class="cls-3" x1="3211.96" y1="1727.8" x2="3099.32" y2="1727.8"/><line class="cls-3" x1="3211.96" y1="1777.3" x2="3099.32" y2="1777.3"/><line class="cls-3" x1="3211.96" y1="1826.8" x2="3099.32" y2="1826.8"/><line class="cls-3" x1="3211.96" y1="1876.3" x2="3099.32" y2="1876.3"/><line class="cls-3" x1="3211.96" y1="1925.81" x2="3099.32" y2="1925.81"/><line class="cls-3" x1="3211.96" y1="1975.31" x2="3099.32" y2="1975.31"/><line class="cls-3" x1="3211.96" y1="2024.81" x2="3099.32" y2="2024.81"/><line class="cls-3" x1="3211.96" y1="2074.31" x2="3099.32" y2="2074.31"/><line class="cls-3" x1="3211.96" y1="2123.81" x2="3099.32" y2="2123.81"/><line class="cls-2" x1="2256.22" y1="272.55" x2="2256.22" y2="337.18"/><line class="cls-2" x1="2284.57" y1="272.55" x2="2284.57" y2="337.18"/><line class="cls-2" x1="2312.91" y1="272.55" x2="2312.91" y2="337.18"/><line class="cls-2" x1="2341.26" y1="272.55" x2="2341.26" y2="337.18"/><line class="cls-2" x1="2369.61" y1="272.55" x2="2369.61" y2="337.18"/><line class="cls-2" x1="2397.95" y1="272.55" x2="2397.95" y2="337.18"/><rect class="cls-5" x="2021.79" y="2384.08" width="226.77" height="92.98" rx="37.21"/><rect class="cls-5" x="3061.9" y="1619.86" width="187.49" height="562.39" rx="93.75"/><rect class="cls-5" x="1095.56" y="1823.95" width="127.72" height="193.19" rx="63.86"/><path class="cls-1" d="M2210,814.49a.81.81,0,0,1,.71,1.21l-37.39,64.76-37.39,64.76a.81.81,0,0,1-1.4,0l-37.39-64.76L2059.7,815.7a.81.81,0,0,1,.7-1.21H2210m0-9.58H2060.4a10.39,10.39,0,0,0-9,15.58l37.39,64.76L2126.18,950a10.38,10.38,0,0,0,18,0l37.39-64.75L2219,820.49a10.39,10.39,0,0,0-9-15.58Z"/><path class="cls-1" d="M2135.18,1601.57a.7.7,0,0,1,.7.41l37.39,64.75,37.39,64.76a.82.82,0,0,1-.71,1.22H2060.4a.82.82,0,0,1-.7-1.22l37.39-64.76,37.39-64.75a.7.7,0,0,1,.7-.41m0-9.57a10.3,10.3,0,0,0-9,5.19l-37.38,64.75-37.39,64.76a10.38,10.38,0,0,0,9,15.58H2210a10.39,10.39,0,0,0,9-15.58l-37.39-64.76-37.39-64.75a10.28,10.28,0,0,0-9-5.19Z"/><path class="cls-1" d="M2602.85,1222.85a.85.85,0,0,1,.83.83v149.55a.85.85,0,0,1-.83.83.77.77,0,0,1-.39-.13l-64.75-37.38L2473,1299.16a.81.81,0,0,1,0-1.41l64.76-37.38,64.75-37.39a.77.77,0,0,1,.39-.13m0-9.57a10.29,10.29,0,0,0-5.18,1.41l-64.75,37.38-64.76,37.39a10.39,10.39,0,0,0,0,18l64.76,37.39,64.75,37.38a10.36,10.36,0,0,0,15.58-9V1223.68a10.4,10.4,0,0,0-10.4-10.4Z"/><path class="cls-1" d="M1682.82,1222.85a.8.8,0,0,1,.39.13l64.76,37.39,64.75,37.38a.81.81,0,0,1,0,1.41L1748,1336.55l-64.76,37.38a.77.77,0,0,1-.39.13.85.85,0,0,1-.83-.83V1223.68a.85.85,0,0,1,.83-.83m0-9.57a10.4,10.4,0,0,0-10.4,10.4v149.55a10.36,10.36,0,0,0,15.58,9l64.75-37.38,64.76-37.39a10.39,10.39,0,0,0,0-18l-64.76-37.39L1688,1214.69a10.29,10.29,0,0,0-5.18-1.41Z"/><circle class="cls-6" cx="2142.84" cy="1272.33" r="157.94"/></svg>